<svg xmlns="http://www.w3.org/2000/svg" width="26" height="24"><path d="M25.92 6.26l-4.39 10.27a.97.97 0 0 1-.89.59H8.57a.95.95 0 0 1-.92-.72L3.72 1.96H.96C.43 1.96 0 1.52 0 .98S.43 0 .96 0h3.48c.43 0 .82.29.93.72L9.3 15.16H20l3.56-8.31H11.7c-.53 0-.96-.44-.96-.98s.43-.98.96-.98h13.34c.32 0 .62.16.8.44.17.28.21.62.08.93zM7.66 19.56c1.2 0 2.18 1 2.18 2.22C9.84 23 8.86 24 7.66 24c-1.2 0-2.18-1-2.18-2.22 0-1.22.98-2.22 2.18-2.22zm13.48 0c1.2-.08 2.25.85 2.33 2.06.03.6-.15 1.17-.53 1.61-.39.46-.92.72-1.49.77h-.16c-1.14 0-2.09-.91-2.17-2.07-.08-1.21.82-2.28 2.02-2.37z" fill="#EF5B6F"/></svg>