<svg xmlns="http://www.w3.org/2000/svg" width="45" height="32"><path d="M44.09 27.24h-2.82c-.44 2.66-2.73 4.69-5.49 4.69-2.76 0-5.05-2.03-5.49-4.69H14.81c-.44 2.66-2.74 4.69-5.49 4.69-2.76 0-5.05-2.03-5.5-4.69H1.89c-1.03 0-1.86-.84-1.86-1.88V1.87C.03.84.86 0 1.89 0h25.55c1.02 0 1.85.84 1.85 1.87v1.91h7.12c.09 0 .17.01.24.03 2.31.2 3.46 1.4 4.68 3.46l3.56 6.09c.08.15.13.31.13.48V26.3c0 .52-.42.94-.93.94zM9.32 30.06c2.05 0 3.71-1.69 3.71-3.76s-1.66-3.76-3.71-3.76S5.6 24.23 5.6 26.3s1.67 3.76 3.72 3.76zM27.44 1.87H1.89v23.49h1.93c.45-2.66 2.74-4.69 5.5-4.69 2.75 0 5.05 2.03 5.49 4.69h12.63V1.87zm8.34 28.19c2.05 0 3.72-1.69 3.72-3.76s-1.67-3.76-3.72-3.76c-2.05 0-3.72 1.69-3.72 3.76s1.67 3.76 3.72 3.76zm4.06-21.65h-6.9v3.76c0 .53.42.96.95.96.06 0 .12 0 .19.01h8.52l-2.76-4.73zm3.32 7.61h-.88c-.51 0-.93.42-.93.94v.91h1.81v-1.85zm0 3.72h-2.74c-.51 0-.92-.42-.92-.93v-1.85c0-.75.29-1.43.76-1.94h-6.37c-.08 0-.16-.01-.23-.03a2.83 2.83 0 0 1-2.58-2.82v-4.7c0-.52.42-.94.93-.94h6.48c-.65-.62-1.39-.88-2.57-.88h-6.63v19.71h1c.44-2.66 2.73-4.69 5.49-4.69 2.76 0 5.05 2.03 5.49 4.69h1.89v-5.62zm-7.38 3.78c.51 0 .93.42.93.94s-.42.94-.93.94c-.49 0-.89.4-.89.9s.4.9.89.9.89-.4.89-.9c0-.52.42-.94.93-.94s.93.42.93.94c0 1.53-1.23 2.78-2.75 2.78s-2.75-1.25-2.75-2.78c0-1.53 1.23-2.78 2.75-2.78zm-32-18.8c0-.52.42-.94.93-.94h19.9c.52 0 .93.42.93.94 0 .51-.41.93-.93.93H4.71c-.51 0-.93-.42-.93-.93zm5.54 18.8c.51 0 .93.42.93.94s-.42.94-.93.94c-.5 0-.9.4-.9.9a.896.896 0 1 0 1.79 0c0-.52.41-.94.93-.94.51 0 .93.42.93.94 0 1.53-1.24 2.78-2.75 2.78-1.52 0-2.75-1.25-2.75-2.78 0-1.53 1.23-2.78 2.75-2.78z" fill="#F16D7F"/></svg>