<svg xmlns="http://www.w3.org/2000/svg" width="40" height="40"><path d="M36.58 16.99l3.41 2.97-3.41 2.96 2.2 3.97-4.21 1.6.74 4.49-4.5.05-.82 4.48L25.75 36l-2.29 3.92-3.47-2.9-3.47 2.9L14.23 36l-4.24 1.51-.82-4.48-4.49-.05.73-4.49-4.21-1.6 2.21-3.97L0 19.96l3.41-2.97-2.21-3.97 4.21-1.6-.73-4.49 4.49-.05L10 2.4l4.24 1.52L16.52 0l3.47 2.89L23.47 0l2.28 3.92 4.24-1.51.83 4.48 4.49.04-.73 4.5 4.21 1.6-2.21 3.96zm-2.67-3.77l-1.46-.55.26-1.56.37-2.28-2.28-.03-1.56-.01-.29-1.56-.41-2.27-2.16.77-1.46.52-.8-1.36-1.16-1.99-1.76 1.47-1.21 1.01-1.2-1.01-1.76-1.47-1.16 1.99-.8 1.36-1.46-.52-2.15-.77-.42 2.27-.29 1.56-1.56.01-2.28.03.37 2.28.26 1.56-1.46.55-2.14.81 1.12 2.01.77 1.38-1.18 1.03-1.74 1.51 1.74 1.5 1.18 1.03-.77 1.38-1.12 2.01 2.14.81 1.46.55-.26 1.56-.37 2.28 2.28.03 1.56.01.29 1.56.41 2.27 2.15-.77 1.47-.52.8 1.36 1.16 1.99 1.76-1.47 1.2-1.01 1.21 1.01 1.76 1.47 1.16-1.99.79-1.36 1.47.53 2.15.76.42-2.27.29-1.55 1.56-.02 2.28-.02-.37-2.29-.26-1.55 1.46-.56 2.13-.81-1.12-2.01-.76-1.38 1.18-1.03 1.73-1.51-1.73-1.5-1.18-1.03.76-1.37 1.13-2.02-2.14-.81zm-9.24 14.15c-1.79 0-3.33-1.45-3.35-4.35 0-2.93 1.56-4.56 3.46-4.56 2 0 3.3 1.56 3.3 4.33 0 3.06-1.58 4.58-3.41 4.58zm.04-7.72c-1.21 0-1.87 1.45-1.87 3.28-.02 1.85.68 3.26 1.87 3.26 1.28 0 1.85-1.39 1.85-3.31 0-1.76-.51-3.23-1.85-3.23zm-9.52 7.68l8.42-14.72h1.23l-8.41 14.72h-1.24zm.14-5.97c-1.79 0-3.33-1.45-3.35-4.37 0-2.9 1.56-4.54 3.46-4.54 2 0 3.32 1.57 3.32 4.34 0 3.05-1.58 4.57-3.43 4.57zm.04-7.72c-1.21 0-1.85 1.45-1.85 3.28-.04 1.85.64 3.26 1.85 3.26 1.28 0 1.85-1.38 1.85-3.3 0-1.77-.51-3.24-1.85-3.24z" fill="#F16D7F"/></svg>