<svg xmlns="http://www.w3.org/2000/svg" width="48" height="35"><path d="M42.39 8.53c-2.56 0-4.64 2.04-4.64 4.53 0 1.34.6 2.54 1.56 3.37l-5.86 2.06-8.34-9.69c1.79-.62 3.09-2.28 3.09-4.25 0-2.5-2.08-4.54-4.64-4.54-2.56 0-4.65 2.04-4.65 4.54 0 1.95 1.28 3.6 3.05 4.24l-8.35 9.7-5.86-2.06c.95-.83 1.56-2.03 1.56-3.37 0-2.49-2.09-4.53-4.65-4.53-2.56 0-4.64 2.04-4.64 4.53 0 2.13 1.51 3.91 3.54 4.4v12.29c0 .08.03.16.05.24a1.6 1.6 0 0 0-.05.39c0 4.41 17.92 4.54 19.96 4.54 2.04 0 19.97-.13 19.97-4.54 0-.14-.02-.27-.05-.39.02-.08.05-.16.05-.24V17.46c2.03-.49 3.54-2.27 3.54-4.4.01-2.49-2.08-4.53-4.64-4.53zM21.17 4.55c0-1.29 1.07-2.33 2.39-2.33 1.31 0 2.38 1.04 2.38 2.33 0 1.28-1.07 2.33-2.38 2.33-1.32 0-2.39-1.05-2.39-2.33zm-7.59 16.27c.45.16.94.03 1.25-.33l8.7-10.1 8.69 10.1c.31.36.8.49 1.25.33l7.76-2.72v9.94c-4.89-2.13-16.11-2.2-17.71-2.2-1.59 0-12.82.07-17.7 2.2V18.1l7.76 2.72zm9.95 11.89c-8.71 0-14.25-1.01-16.56-1.86-.45-.17-.79-.33-1-.47.73-.52 3.06-1.24 6.97-1.73 2.75-.36 6.28-.61 10.59-.61s7.83.25 10.59.61c3.9.49 6.24 1.21 6.96 1.73-.2.14-.54.3-.99.47-2.31.85-7.85 1.86-16.56 1.86zM2.28 13.06c0-1.28 1.07-2.32 2.39-2.32 1.31 0 2.38 1.04 2.38 2.32 0 1.29-1.07 2.33-2.38 2.33-1.32 0-2.39-1.04-2.39-2.33zm40.11 2.33c-1.31 0-2.38-1.04-2.38-2.33 0-1.28 1.07-2.32 2.38-2.32 1.31 0 2.39 1.04 2.39 2.32 0 1.29-1.08 2.33-2.39 2.33z" fill="#F16D7F"/></svg>